<svg width="140" height="116" viewBox="0 0 140 116" fill="none" xmlns="http://www.w3.org/2000/svg">
<path d="M67.9428 72.2614C67.3801 73.4217 67.4248 74.7867 68.0588 75.9102L77.0685 91.3481C77.831 92.657 77.7565 94.29 76.8792 95.5268C76.0365 96.7852 74.5449 97.4431 73.0471 97.2279L55.342 94.8911C54.7243 94.8042 54.0961 94.8657 53.5021 95.0632L52.5918 95.395C52.2932 95.5571 52.0209 95.7705 51.7951 96.0278L39.7563 109.248C39.1554 109.885 38.3701 110.32 37.5061 110.486C35.3804 110.835 33.3631 109.424 32.9605 107.307L29.9264 89.6909C29.6851 88.4128 28.8385 87.3325 27.6563 86.793L11.2419 79.4575C9.86878 78.843 8.97739 77.4936 8.95488 75.9911C8.92017 74.4969 9.71512 73.1074 11.0228 72.3835L26.8343 63.8768C28.0563 63.2831 28.8899 62.104 29.0446 60.7538L30.9037 42.9907C30.956 42.5911 31.0684 42.2001 31.245 41.8389L31.4616 41.4936C31.5558 41.2614 31.6845 41.0508 31.8432 40.8598L32.1604 40.592L32.6457 40.1487L34.0598 39.6333C35.3706 39.304 36.7579 39.6545 37.7503 40.5713L50.6766 52.8693C51.6144 53.7718 52.937 54.1536 54.2102 53.8988L71.7871 50.2358C73.2714 49.9232 74.8054 50.4676 75.762 51.641C76.693 52.8276 76.8521 54.4439 76.1714 55.7917L67.9428 72.2614Z" fill="url(#paint0_linear_17_588)"/>
<g opacity="0.5" filter="url(#filter0_f_17_588)">
<path d="M52.4617 63.3279C44.7742 63.3279 38.5352 69.5684 38.5352 77.2545C38.5352 84.9433 44.7742 91.181 52.4617 91.181C60.163 91.181 66.3882 84.9433 66.3882 77.2545C66.3882 69.5684 60.163 63.3279 52.4617 63.3279V63.3279Z" fill="#00AFF0"/>
</g>
<g filter="url(#filter1_b_17_588)">
<path d="M108.936 69.6666C107.518 70.4853 106.592 71.9522 106.458 73.5852L104.929 96.235C104.798 98.1544 103.556 99.818 101.752 100.493C99.9695 101.216 97.9326 100.844 96.5114 99.5507L79.5636 84.4773C78.9761 83.9458 78.2718 83.5628 77.5067 83.3471L76.3133 83.0473C75.8839 83.0049 75.4455 83.0352 75.0247 83.1448L52.9481 88.4638C51.8619 88.7058 50.7267 88.6032 49.6997 88.1625C47.2167 87.0142 46.1013 84.0935 47.1869 81.5806L56.5504 60.8993C57.2074 59.3837 57.0873 57.6446 56.2289 56.2351L44.2001 36.8264C43.1944 35.202 43.2189 33.1482 44.2659 31.5526C45.2942 29.957 47.1201 29.0628 49.0107 29.2336L71.6949 31.5581C73.4026 31.8046 75.1191 31.1591 76.244 29.85L90.8565 12.5008C91.1961 12.1179 91.593 11.7869 92.036 11.5331L92.5098 11.3244C92.7743 11.1474 93.0597 11.0178 93.3626 10.9301L93.8869 10.8745L94.713 10.7544L96.5669 11.2203C98.1795 11.8081 99.3882 13.1652 99.7782 14.8362L104.604 36.9761C104.946 38.5932 106.065 39.937 107.585 40.5764L128.673 49.251C130.457 49.98 131.681 51.6455 131.851 53.5608C131.984 55.4716 131 57.2842 129.323 58.216L108.936 69.6666Z" fill="#00AFF0" fill-opacity="0.19"/>
<path d="M105.428 96.2687L105.428 96.2691C105.283 98.3823 103.917 100.214 101.934 100.959C99.9739 101.751 97.7376 101.341 96.177 99.9224C96.1763 99.9218 96.1756 99.9211 96.1748 99.9205L79.2313 84.8509L79.2281 84.8481C78.7015 84.3716 78.0686 84.0261 77.3778 83.8303L76.2286 83.5415C75.8665 83.5097 75.5002 83.5376 75.1508 83.6287L75.1418 83.631L75.1418 83.6309L53.0652 88.9499L53.0569 88.9519L53.0568 88.9518C51.869 89.2165 50.6267 89.1044 49.5026 88.622L49.4898 88.6165L49.4899 88.6164C46.7605 87.3542 45.5348 84.144 46.7279 81.3823L46.7313 81.3744L46.7314 81.3744L56.0916 60.7004C56.0921 60.6992 56.0926 60.6981 56.0932 60.6969C56.6837 59.3316 56.5751 57.7661 55.8028 56.4968C55.8025 56.4962 55.8022 56.4957 55.8019 56.4952L43.7751 37.0898L43.775 37.0896C42.6677 35.301 42.6938 33.0384 43.8468 31.2799C44.9758 29.5296 46.98 28.5481 49.0557 28.7356L49.0617 28.7361L49.0617 28.7362L71.7458 31.0607C71.7527 31.0614 71.7595 31.0622 71.7663 31.0632C73.3036 31.2851 74.8495 30.7045 75.8632 29.5259C75.8637 29.5253 75.8642 29.5247 75.8648 29.5241L90.474 12.1787L90.4823 12.1688L90.4824 12.1689C90.8552 11.7488 91.2936 11.3822 91.7874 11.0993C91.8026 11.0905 91.8183 11.0826 91.8344 11.0755L92.2697 10.8838C92.5685 10.6895 92.8883 10.5469 93.2235 10.4498C93.2518 10.4416 93.2807 10.436 93.3099 10.4329L93.8245 10.3784L94.641 10.2596C94.7056 10.2502 94.7715 10.2536 94.8348 10.2695L96.6888 10.7353C96.7055 10.7395 96.7219 10.7446 96.7381 10.7505C98.5084 11.3958 99.8365 12.8862 100.265 14.7226L100.267 14.7297L100.267 14.7298L105.092 36.8697L105.093 36.8725C105.401 38.3275 106.408 39.5382 107.777 40.1148C107.778 40.1151 107.778 40.1153 107.779 40.1155L128.863 48.7882C128.863 48.7883 128.863 48.7884 128.863 48.7885L128.864 48.7886L105.428 96.2687ZM105.428 96.2687L106.957 73.6261L105.428 96.2687Z" stroke="url(#paint1_linear_17_588)" stroke-linecap="round" stroke-linejoin="round"/>
</g>
<defs>
<filter id="filter0_f_17_588" x="18.5352" y="43.3279" width="67.853" height="67.853" filterUnits="userSpaceOnUse" color-interpolation-filters="sRGB">
<feFlood flood-opacity="0" result="BackgroundImageFix"/>
<feBlend mode="normal" in="SourceGraphic" in2="BackgroundImageFix" result="shape"/>
<feGaussianBlur stdDeviation="10" result="effect1_foregroundBlur_17_588"/>
</filter>
<filter id="filter1_b_17_588" x="18.4629" y="-14.2456" width="138.4" height="140.103" filterUnits="userSpaceOnUse" color-interpolation-filters="sRGB">
<feFlood flood-opacity="0" result="BackgroundImageFix"/>
<feGaussianBlur in="BackgroundImageFix" stdDeviation="12"/>
<feComposite in2="SourceAlpha" operator="in" result="effect1_backgroundBlur_17_588"/>
<feBlend mode="normal" in="SourceGraphic" in2="effect1_backgroundBlur_17_588" result="shape"/>
</filter>
<linearGradient id="paint0_linear_17_588" x1="13.5803" y1="66.8539" x2="87.3535" y2="135.975" gradientUnits="userSpaceOnUse">
<stop stop-color="#00AFF0"/>
<stop offset="1" stop-color="#00AFF0"/>
</linearGradient>
<linearGradient id="paint1_linear_17_588" x1="63.4863" y1="13.2717" x2="98.945" y2="95.2793" gradientUnits="userSpaceOnUse">
<stop stop-color="white" stop-opacity="0.25"/>
<stop offset="1" stop-color="white" stop-opacity="0"/>
</linearGradient>
</defs>
</svg>
