<svg width="111" height="113" viewBox="0 0 111 113" fill="none" xmlns="http://www.w3.org/2000/svg">
<path fill-rule="evenodd" clip-rule="evenodd" d="M26.1637 15.1616C25.1404 16.5363 22.9393 21.217 21.8795 23.5961L95.4813 54.4705C96.4377 52.0432 98.2501 47.1561 98.5006 45.5054C100.147 36.1425 95.7939 27.8272 86.8037 23.0892L50.3524 7.79863C40.6087 4.63015 31.7223 7.34835 26.1637 15.1616ZM8.80281 54.7322L21.866 23.5908L95.496 54.4771L82.3281 85.868C76.9419 98.7082 65.5479 103.213 52.6162 97.7881L20.9739 84.5148C8.16339 79.1411 3.38057 67.6584 8.80281 54.7322Z" fill="url(#paint0_linear_17_553)"/>
<g opacity="0.5" filter="url(#filter0_f_17_553)">
<path d="M70.5532 29.8643L50.139 21.6245C42.7342 18.6357 36.5214 21.6064 33.2633 29.6785L22.2283 57.0176C18.9168 65.222 21.3694 71.5673 28.7742 74.556L49.1884 82.7959C56.7125 85.8328 62.7608 82.9188 66.0724 74.7144L77.1073 47.3753C80.3654 39.3032 78.0773 32.9013 70.5532 29.8643Z" fill="#00B3A0"/>
</g>
<g filter="url(#filter1_b_17_553)">
<mask id="path-3-outside-1_17_553" maskUnits="userSpaceOnUse" x="29.1543" y="28.6277" width="82" height="85" fill="black">
<rect fill="white" x="29.1543" y="28.6277" width="82" height="85"/>
<path fill-rule="evenodd" clip-rule="evenodd" d="M30.8572 45.7743C30.4452 47.4377 30.2261 52.6055 30.1691 55.2094H109.984C109.927 52.6011 109.708 47.3934 109.301 45.7743C107.197 36.5033 99.9662 30.5193 89.8431 29.6277H50.3146C40.1038 30.4749 32.9607 36.419 30.8572 45.7743ZM30.1543 55.2098V88.9801C30.1543 102.997 39.0066 111.736 52.8985 111.736H87.212C101.235 111.736 110 103.175 110 89.2507V55.2098H30.1543ZM48.3848 74.5232C48.4724 76.5593 50.1377 78.1606 52.1535 78.0675C54.1256 77.9832 55.7032 76.2976 55.6156 74.2526C55.5717 72.2609 53.9503 70.7039 51.9783 70.7039C49.9624 70.7971 48.3848 72.4827 48.3848 74.5232ZM66.3965 74.5232C66.4841 76.5593 68.1494 78.1606 70.1653 78.0675C72.1373 77.9832 73.7149 76.2976 73.6273 74.2526C73.5835 72.2609 71.962 70.7039 69.99 70.7039C67.9741 70.7971 66.3965 72.4827 66.3965 74.5232ZM84.4071 90.6213C84.4071 92.6618 86.0286 94.3475 88.0444 94.3918C90.1041 94.3918 91.7694 92.7062 91.7694 90.6213C91.7694 88.5409 90.1041 86.8553 88.0444 86.8553H88.0006C85.9847 86.8996 84.3633 88.5808 84.4071 90.6213ZM70.1653 94.17C68.1494 94.2632 66.4841 92.6618 66.3965 90.6213C66.3965 88.5808 67.9741 86.8996 69.99 86.8065C71.962 86.8065 73.5835 88.3634 73.6273 90.3596C73.7149 92.4001 72.1373 94.0857 70.1653 94.17ZM52.1095 94.1702C50.0937 94.2633 48.4284 92.662 48.3408 90.6215C48.3408 88.581 49.9184 86.8998 51.9343 86.8066C53.9063 86.8066 55.5277 88.3636 55.5716 90.3598C55.6592 92.4003 54.0816 94.0859 52.1095 94.1702ZM88.0447 70.7527C86.0288 70.7971 84.4512 72.4384 84.4512 74.4789V74.5232C84.495 76.5593 86.1603 78.1119 88.1761 78.0675C90.1482 78.0276 91.7258 76.3419 91.682 74.3014C91.5943 72.3452 90.0167 70.7527 88.0447 70.7527Z"/>
</mask>
<path fill-rule="evenodd" clip-rule="evenodd" d="M30.8572 45.7743C30.4452 47.4377 30.2261 52.6055 30.1691 55.2094H109.984C109.927 52.6011 109.708 47.3934 109.301 45.7743C107.197 36.5033 99.9662 30.5193 89.8431 29.6277H50.3146C40.1038 30.4749 32.9607 36.419 30.8572 45.7743ZM30.1543 55.2098V88.9801C30.1543 102.997 39.0066 111.736 52.8985 111.736H87.212C101.235 111.736 110 103.175 110 89.2507V55.2098H30.1543ZM48.3848 74.5232C48.4724 76.5593 50.1377 78.1606 52.1535 78.0675C54.1256 77.9832 55.7032 76.2976 55.6156 74.2526C55.5717 72.2609 53.9503 70.7039 51.9783 70.7039C49.9624 70.7971 48.3848 72.4827 48.3848 74.5232ZM66.3965 74.5232C66.4841 76.5593 68.1494 78.1606 70.1653 78.0675C72.1373 77.9832 73.7149 76.2976 73.6273 74.2526C73.5835 72.2609 71.962 70.7039 69.99 70.7039C67.9741 70.7971 66.3965 72.4827 66.3965 74.5232ZM84.4071 90.6213C84.4071 92.6618 86.0286 94.3475 88.0444 94.3918C90.1041 94.3918 91.7694 92.7062 91.7694 90.6213C91.7694 88.5409 90.1041 86.8553 88.0444 86.8553H88.0006C85.9847 86.8996 84.3633 88.5808 84.4071 90.6213ZM70.1653 94.17C68.1494 94.2632 66.4841 92.6618 66.3965 90.6213C66.3965 88.5808 67.9741 86.8996 69.99 86.8065C71.962 86.8065 73.5835 88.3634 73.6273 90.3596C73.7149 92.4001 72.1373 94.0857 70.1653 94.17ZM52.1095 94.1702C50.0937 94.2633 48.4284 92.662 48.3408 90.6215C48.3408 88.581 49.9184 86.8998 51.9343 86.8066C53.9063 86.8066 55.5277 88.3636 55.5716 90.3598C55.6592 92.4003 54.0816 94.0859 52.1095 94.1702ZM88.0447 70.7527C86.0288 70.7971 84.4512 72.4384 84.4512 74.4789V74.5232C84.495 76.5593 86.1603 78.1119 88.1761 78.0675C90.1482 78.0276 91.7258 76.3419 91.682 74.3014C91.5943 72.3452 90.0167 70.7527 88.0447 70.7527Z" fill="#00AFF0" fill-opacity="0.24"/>
<path d="M30.1691 55.2094L29.1694 55.1875C29.1635 55.4565 29.2662 55.7165 29.4544 55.9087C29.6425 56.101 29.9001 56.2094 30.1691 56.2094V55.2094ZM30.8572 45.7743L31.8279 46.0147C31.8296 46.0077 31.8312 46.0007 31.8328 45.9937L30.8572 45.7743ZM109.984 55.2094V56.2094C110.253 56.2094 110.511 56.101 110.699 55.9088C110.887 55.7165 110.99 55.4565 110.984 55.1876L109.984 55.2094ZM109.301 45.7743L108.325 45.9956C108.327 46.0032 108.329 46.0108 108.331 46.0184L109.301 45.7743ZM89.8431 29.6277L89.9308 28.6316C89.9016 28.629 89.8724 28.6277 89.8431 28.6277V29.6277ZM50.3146 29.6277V28.6277C50.287 28.6277 50.2594 28.6289 50.2319 28.6312L50.3146 29.6277ZM30.1543 55.2098V54.2098C29.602 54.2098 29.1543 54.6576 29.1543 55.2098H30.1543ZM110 55.2098H111C111 54.6576 110.552 54.2098 110 54.2098V55.2098ZM52.1535 78.0675L52.1108 77.0684L52.1074 77.0686L52.1535 78.0675ZM48.3848 74.5233H47.3848C47.3848 74.5376 47.3851 74.5519 47.3857 74.5663L48.3848 74.5233ZM55.6156 74.2527L54.6158 74.2747C54.616 74.2816 54.6162 74.2886 54.6165 74.2955L55.6156 74.2527ZM51.9783 70.704V69.704C51.9629 69.704 51.9475 69.7043 51.9321 69.705L51.9783 70.704ZM70.1653 78.0675L70.1226 77.0684L70.1191 77.0686L70.1653 78.0675ZM66.3965 74.5233H65.3965C65.3965 74.5376 65.3968 74.5519 65.3974 74.5663L66.3965 74.5233ZM73.6273 74.2527L72.6275 74.2747C72.6277 74.2816 72.6279 74.2886 72.6282 74.2955L73.6273 74.2527ZM69.99 70.704V69.704C69.9746 69.704 69.9592 69.7043 69.9438 69.705L69.99 70.704ZM88.0444 94.3919L88.0224 95.3916C88.0298 95.3918 88.0371 95.3919 88.0444 95.3919V94.3919ZM84.4071 90.6214H85.4071C85.4071 90.6142 85.407 90.6071 85.4069 90.5999L84.4071 90.6214ZM88.0006 86.8553V85.8553C87.9933 85.8553 87.9859 85.8554 87.9786 85.8556L88.0006 86.8553ZM66.3965 90.6214H65.3965C65.3965 90.6357 65.3968 90.65 65.3974 90.6643L66.3965 90.6214ZM70.1653 94.1701L70.1226 93.171L70.1191 93.1711L70.1653 94.1701ZM69.99 86.8065V85.8065C69.9746 85.8065 69.9592 85.8069 69.9438 85.8076L69.99 86.8065ZM73.6273 90.3596L72.6275 90.3816C72.6277 90.3886 72.6279 90.3956 72.6282 90.4026L73.6273 90.3596ZM48.3408 90.6215H47.3408C47.3408 90.6358 47.3411 90.6502 47.3417 90.6644L48.3408 90.6215ZM52.1095 94.1702L52.0668 93.1711L52.0634 93.1713L52.1095 94.1702ZM51.9343 86.8067V85.8067C51.9189 85.8067 51.9035 85.807 51.8881 85.8078L51.9343 86.8067ZM55.5716 90.3598L54.5718 90.3818C54.572 90.3888 54.5722 90.3957 54.5725 90.4027L55.5716 90.3598ZM88.0447 70.7528V69.7528C88.0373 69.7528 88.03 69.7529 88.0227 69.753L88.0447 70.7528ZM84.4512 74.5233H83.4512C83.4512 74.5305 83.4512 74.5376 83.4514 74.5448L84.4512 74.5233ZM88.1761 78.0676L88.1559 77.0678L88.1541 77.0678L88.1761 78.0676ZM91.682 74.3015L92.6818 74.28C92.6816 74.2723 92.6813 74.2645 92.681 74.2567L91.682 74.3015ZM31.1689 55.2313C31.1972 53.9399 31.2657 52.0106 31.3781 50.2012C31.4928 48.3545 31.6478 46.7419 31.8279 46.0147L29.8865 45.5339C29.6546 46.4702 29.494 48.2733 29.382 50.0772C29.2676 51.9185 29.1981 53.8751 29.1694 55.1875L31.1689 55.2313ZM109.984 54.2094H30.1691V56.2094H109.984V54.2094ZM108.331 46.0184C108.507 46.7205 108.661 48.3281 108.776 50.1825C108.888 51.997 108.956 53.9375 108.984 55.2313L110.984 55.1876C110.955 53.8731 110.886 51.9056 110.772 50.0594C110.661 48.253 110.501 46.4473 110.27 45.5302L108.331 46.0184ZM89.7553 30.6239C99.4883 31.4811 106.327 37.1885 108.325 45.9956L110.276 45.5531C108.067 35.8182 100.444 29.5576 89.9308 28.6316L89.7553 30.6239ZM50.3146 30.6277H89.8431V28.6277H50.3146V30.6277ZM31.8328 45.9937C33.8322 37.1016 40.5832 31.4387 50.3973 30.6243L50.2319 28.6312C39.6245 29.5113 32.0892 35.7365 29.8815 45.5549L31.8328 45.9937ZM31.1543 88.9801V55.2098H29.1543V88.9801H31.1543ZM52.8985 110.736C46.1648 110.736 40.7509 108.622 37.0229 104.906C33.2954 101.191 31.1543 95.775 31.1543 88.9801H29.1543C29.1543 96.2026 31.4393 102.165 35.611 106.323C39.7821 110.481 45.7403 112.736 52.8985 112.736V110.736ZM87.212 110.736H52.8985V112.736H87.212V110.736ZM109 89.2507C109 95.9994 106.881 101.344 103.163 105.002C99.4441 108.662 94.0194 110.736 87.212 110.736V112.736C94.428 112.736 100.397 110.53 104.566 106.428C108.737 102.324 111 96.4262 111 89.2507H109ZM109 55.2098V89.2507H111V55.2098H109ZM30.1543 56.2098H110V54.2098H30.1543V56.2098ZM52.1074 77.0686C50.6769 77.1347 49.4491 75.9963 49.3838 74.4803L47.3857 74.5663C47.4957 77.1223 49.5985 79.1867 52.1997 79.0665L52.1074 77.0686ZM54.6165 74.2955C54.6806 75.7903 53.5293 77.0078 52.1108 77.0684L52.1962 79.0666C54.7218 78.9587 56.7259 76.8049 56.6147 74.2099L54.6165 74.2955ZM51.9783 71.704C53.4136 71.704 54.5841 72.8336 54.6158 74.2747L56.6153 74.2307C56.5594 71.6884 54.487 69.704 51.9783 69.704V71.704ZM49.3848 74.5233C49.3848 73.002 50.5573 71.7707 52.0244 71.7029L51.9321 69.705C49.3675 69.8236 47.3848 71.9635 47.3848 74.5233H49.3848ZM70.1191 77.0686C68.6886 77.1347 67.4608 75.9963 67.3956 74.4803L65.3974 74.5663C65.5074 77.1223 67.6102 79.1867 70.2114 79.0665L70.1191 77.0686ZM72.6282 74.2955C72.6923 75.7903 71.541 77.0078 70.1226 77.0684L70.208 79.0666C72.7336 78.9587 74.7376 76.8049 74.6264 74.2099L72.6282 74.2955ZM69.99 71.704C71.4254 71.704 72.5958 72.8336 72.6275 74.2747L74.6271 74.2307C74.5711 71.6884 72.4987 69.704 69.99 69.704V71.704ZM67.3965 74.5233C67.3965 73.002 68.569 71.7707 70.0361 71.7029L69.9438 69.705C67.3792 69.8236 65.3965 71.9635 65.3965 74.5233H67.3965ZM88.0664 93.3921C86.6079 93.36 85.4071 92.1321 85.4071 90.6214H83.4071C83.4071 93.1917 85.4492 95.335 88.0224 95.3916L88.0664 93.3921ZM90.7694 90.6214C90.7694 92.1655 89.5404 93.3919 88.0444 93.3919V95.3919C90.6678 95.3919 92.7694 93.2471 92.7694 90.6214H90.7694ZM88.0444 87.8553C89.5412 87.8553 90.7694 89.0825 90.7694 90.6214H92.7694C92.7694 87.9994 90.6671 85.8553 88.0444 85.8553V87.8553ZM88.0006 87.8553H88.0444V85.8553H88.0006V87.8553ZM85.4069 90.5999C85.3749 89.1113 86.5588 87.8873 88.0226 87.8551L87.9786 85.8556C85.4107 85.9121 83.3517 88.0505 83.4073 90.6429L85.4069 90.5999ZM65.3974 90.6643C65.5074 93.2241 67.6095 95.2892 70.2114 95.169L70.1191 93.1711C68.6894 93.2372 67.4609 92.0997 67.3956 90.5785L65.3974 90.6643ZM69.9438 85.8076C67.3807 85.926 65.3965 88.0602 65.3965 90.6214H67.3965C67.3965 89.1016 68.5676 87.8733 70.0361 87.8055L69.9438 85.8076ZM74.6271 90.3377C74.5712 87.7917 72.4995 85.8065 69.99 85.8065V87.8065C71.4246 87.8065 72.5958 88.9353 72.6275 90.3816L74.6271 90.3377ZM70.208 95.1692C72.7328 95.0612 74.7377 92.9082 74.6264 90.3167L72.6282 90.4026C72.6922 91.8921 71.5419 93.1103 70.1226 93.171L70.208 95.1692ZM47.3417 90.6644C47.4516 93.2243 49.5537 95.2894 52.1557 95.1692L52.0634 93.1713C50.6336 93.2374 49.4052 92.0998 49.3398 90.5786L47.3417 90.6644ZM51.8881 85.8078C49.325 85.9262 47.3408 88.0603 47.3408 90.6215H49.3408C49.3408 89.1017 50.5118 87.8735 51.9804 87.8056L51.8881 85.8078ZM56.5713 90.3379C56.5154 87.7919 54.4437 85.8067 51.9343 85.8067V87.8067C53.3688 87.8067 54.5401 88.9355 54.5718 90.3818L56.5713 90.3379ZM52.1522 95.1693C54.677 95.0614 56.682 92.9084 56.5706 90.3169L54.5725 90.4027C54.6365 91.8923 53.4861 93.1105 52.0668 93.1712L52.1522 95.1693ZM85.4512 74.4789C85.4512 72.9679 86.6085 71.7846 88.0667 71.7526L88.0227 69.753C85.4491 69.8097 83.4512 71.909 83.4512 74.4789H85.4512ZM85.4512 74.5233V74.4789H83.4512V74.5233H85.4512ZM88.1541 77.0678C86.6789 77.1003 85.4826 75.9738 85.4509 74.5018L83.4514 74.5448C83.5074 77.1449 85.6417 79.1236 88.1981 79.0673L88.1541 77.0678ZM90.6822 74.323C90.7147 75.8376 89.5489 77.0396 88.1559 77.0678L88.1964 79.0674C90.7474 79.0157 92.7369 76.8464 92.6818 74.28L90.6822 74.323ZM88.0447 71.7528C89.4539 71.7528 90.618 72.896 90.683 74.3463L92.681 74.2567C92.5707 71.7945 90.5795 69.7528 88.0447 69.7528V71.7528Z" fill="url(#paint1_linear_17_553)" mask="url(#path-3-outside-1_17_553)"/>
</g>
<g filter="url(#filter2_bd_17_553)">
<mask id="path-5-inside-2_17_553" fill="white">
<path fill-rule="evenodd" clip-rule="evenodd" d="M89.8413 39.9635C89.8413 41.9197 88.3513 43.3791 86.4669 43.3791C84.5387 43.3791 83.0926 41.9197 83.0926 39.9635V26.4386C83.0926 24.4823 84.5387 23.0185 86.4669 23.0185C88.3513 23.0185 89.8413 24.4823 89.8413 26.4386V39.9635ZM57.0603 39.9636C57.0603 41.9198 55.6141 43.3792 53.6859 43.3792C51.7577 43.3792 50.3115 41.9198 50.3115 39.9636V26.4386C50.3115 24.4824 51.7577 23.0186 53.6859 23.0186C55.6141 23.0186 57.0603 24.4824 57.0603 26.4386V39.9636Z"/>
</mask>
<path fill-rule="evenodd" clip-rule="evenodd" d="M89.8413 39.9635C89.8413 41.9197 88.3513 43.3791 86.4669 43.3791C84.5387 43.3791 83.0926 41.9197 83.0926 39.9635V26.4386C83.0926 24.4823 84.5387 23.0185 86.4669 23.0185C88.3513 23.0185 89.8413 24.4823 89.8413 26.4386V39.9635ZM57.0603 39.9636C57.0603 41.9198 55.6141 43.3792 53.6859 43.3792C51.7577 43.3792 50.3115 41.9198 50.3115 39.9636V26.4386C50.3115 24.4824 51.7577 23.0186 53.6859 23.0186C55.6141 23.0186 57.0603 24.4824 57.0603 26.4386V39.9636Z" fill="url(#paint2_linear_17_553)"/>
<path d="M86.4669 43.7792C88.5731 43.7792 90.2413 42.1399 90.2413 39.9636H89.4413C89.4413 41.6997 88.1296 42.9792 86.4669 42.9792V43.7792ZM82.6926 39.9636C82.6926 42.1365 84.3136 43.7792 86.4669 43.7792V42.9792C84.7639 42.9792 83.4926 41.7031 83.4926 39.9636H82.6926ZM82.6926 26.4386V39.9636H83.4926V26.4386H82.6926ZM86.4669 22.6186C84.3129 22.6186 82.6926 24.2664 82.6926 26.4386H83.4926C83.4926 24.6984 84.7645 23.4186 86.4669 23.4186V22.6186ZM90.2413 26.4386C90.2413 24.263 88.5738 22.6186 86.4669 22.6186V23.4186C88.1289 23.4186 89.4413 24.7018 89.4413 26.4386H90.2413ZM90.2413 39.9636V26.4386H89.4413V39.9636H90.2413ZM53.6859 43.7793C55.8393 43.7793 57.4603 42.1365 57.4603 39.9636H56.6603C56.6603 41.7032 55.389 42.9793 53.6859 42.9793V43.7793ZM49.9115 39.9636C49.9115 42.1365 51.5325 43.7793 53.6859 43.7793V42.9793C51.9828 42.9793 50.7115 41.7032 50.7115 39.9636H49.9115ZM49.9115 26.4387V39.9636H50.7115V26.4387H49.9115ZM53.6859 22.6186C51.5319 22.6186 49.9115 24.2665 49.9115 26.4387H50.7115C50.7115 24.6984 51.9835 23.4186 53.6859 23.4186V22.6186ZM57.4603 26.4387C57.4603 24.2665 55.8399 22.6186 53.6859 22.6186V23.4186C55.3883 23.4186 56.6603 24.6984 56.6603 26.4387H57.4603ZM57.4603 39.9636V26.4387H56.6603V39.9636H57.4603Z" fill="url(#paint3_linear_17_553)" mask="url(#path-5-inside-2_17_553)"/>
</g>
<g filter="url(#filter3_bd_17_553)">
<mask id="path-7-inside-3_17_553" fill="white">
<path fill-rule="evenodd" clip-rule="evenodd" d="M66.4355 74.5644C66.5232 76.6005 68.1885 78.2018 70.2043 78.1087C72.1764 78.0244 73.754 76.3388 73.6664 74.2938C73.6225 72.3021 72.0011 70.7451 70.029 70.7451C68.0132 70.8383 66.4355 72.5239 66.4355 74.5644ZM84.4462 90.6616C84.4462 92.7021 86.0676 94.3877 88.0835 94.4321C90.1432 94.4321 91.8085 92.7464 91.8085 90.6616C91.8085 88.5811 90.1432 86.8955 88.0835 86.8955H88.0397C86.0238 86.9399 84.4024 88.6211 84.4462 90.6616ZM70.2043 94.2112C68.1885 94.3044 66.5232 92.703 66.4355 90.6625C66.4355 88.622 68.0132 86.9408 70.029 86.8477C72.0011 86.8477 73.6225 88.4046 73.6664 90.4008C73.754 92.4413 72.1764 94.1269 70.2043 94.2112ZM48.4247 74.5644C48.5124 76.6005 50.1776 78.2018 52.1935 78.1087C54.1655 78.0244 55.7432 76.3388 55.6555 74.2938C55.6117 72.3021 53.9902 70.7451 52.0182 70.7451C50.0023 70.8383 48.4247 72.5239 48.4247 74.5644ZM52.1487 94.2111C50.1328 94.3042 48.4675 92.7029 48.3799 90.6623C48.3799 88.6218 49.9575 86.9407 51.9734 86.8475C53.9454 86.8475 55.5669 88.4045 55.6107 90.4006C55.6983 92.4411 54.1207 94.1268 52.1487 94.2111ZM88.0836 70.7941C86.0678 70.8384 84.4901 72.4797 84.4901 74.5202V74.5646C84.534 76.6006 86.1992 78.1532 88.2151 78.1088C90.1871 78.0689 91.7648 76.3833 91.721 74.3428C91.6333 72.3865 90.0557 70.7941 88.0836 70.7941Z"/>
</mask>
<path fill-rule="evenodd" clip-rule="evenodd" d="M66.4355 74.5644C66.5232 76.6005 68.1885 78.2018 70.2043 78.1087C72.1764 78.0244 73.754 76.3388 73.6664 74.2938C73.6225 72.3021 72.0011 70.7451 70.029 70.7451C68.0132 70.8383 66.4355 72.5239 66.4355 74.5644ZM84.4462 90.6616C84.4462 92.7021 86.0676 94.3877 88.0835 94.4321C90.1432 94.4321 91.8085 92.7464 91.8085 90.6616C91.8085 88.5811 90.1432 86.8955 88.0835 86.8955H88.0397C86.0238 86.9399 84.4024 88.6211 84.4462 90.6616ZM70.2043 94.2112C68.1885 94.3044 66.5232 92.703 66.4355 90.6625C66.4355 88.622 68.0132 86.9408 70.029 86.8477C72.0011 86.8477 73.6225 88.4046 73.6664 90.4008C73.754 92.4413 72.1764 94.1269 70.2043 94.2112ZM48.4247 74.5644C48.5124 76.6005 50.1776 78.2018 52.1935 78.1087C54.1655 78.0244 55.7432 76.3388 55.6555 74.2938C55.6117 72.3021 53.9902 70.7451 52.0182 70.7451C50.0023 70.8383 48.4247 72.5239 48.4247 74.5644ZM52.1487 94.2111C50.1328 94.3042 48.4675 92.7029 48.3799 90.6623C48.3799 88.6218 49.9575 86.9407 51.9734 86.8475C53.9454 86.8475 55.5669 88.4045 55.6107 90.4006C55.6983 92.4411 54.1207 94.1268 52.1487 94.2111ZM88.0836 70.7941C86.0678 70.8384 84.4901 72.4797 84.4901 74.5202V74.5646C84.534 76.6006 86.1992 78.1532 88.2151 78.1088C90.1871 78.0689 91.7648 76.3833 91.721 74.3428C91.6333 72.3865 90.0557 70.7941 88.0836 70.7941Z" fill="url(#paint4_linear_17_553)"/>
<path d="M70.2043 78.1087L70.1873 77.709L70.1859 77.7091L70.2043 78.1087ZM66.4355 74.5644H66.0355V74.573L66.0359 74.5816L66.4355 74.5644ZM73.6664 74.2938L73.2664 74.3026L73.2667 74.3109L73.6664 74.2938ZM70.029 70.7451V70.3451H70.0198L70.0106 70.3455L70.029 70.7451ZM88.0835 94.4321L88.0747 94.8321H88.0835V94.4321ZM84.4462 90.6616H84.8463L84.8461 90.653L84.4462 90.6616ZM88.0397 86.8955V86.4954L88.0309 86.4956L88.0397 86.8955ZM66.4355 90.6625H66.0355V90.6711L66.0359 90.6797L66.4355 90.6625ZM70.2043 94.2112L70.1873 93.8116L70.1859 93.8116L70.2043 94.2112ZM70.029 86.8477V86.4477H70.0198L70.0106 86.4481L70.029 86.8477ZM73.6664 90.4008L73.2664 90.4096L73.2667 90.418L73.6664 90.4008ZM52.1935 78.1087L52.1764 77.7091L52.175 77.7091L52.1935 78.1087ZM48.4247 74.5644H48.0247V74.573L48.0251 74.5816L48.4247 74.5644ZM55.6555 74.2938L55.2555 74.3026L55.2559 74.311L55.6555 74.2938ZM52.0182 70.7451V70.3451H52.009L51.9997 70.3456L52.0182 70.7451ZM48.3799 90.6623H47.9799V90.6709L47.9803 90.6795L48.3799 90.6623ZM52.1487 94.2111L52.1316 93.8114L52.1302 93.8115L52.1487 94.2111ZM51.9734 86.8475V86.4475H51.9641L51.9549 86.4479L51.9734 86.8475ZM55.6107 90.4006L55.2107 90.4094L55.2111 90.4178L55.6107 90.4006ZM88.0836 70.7941V70.394L88.0748 70.3942L88.0836 70.7941ZM84.4901 74.5646H84.09L84.0902 74.5732L84.4901 74.5646ZM88.2151 78.1088L88.207 77.7089L88.2063 77.7089L88.2151 78.1088ZM91.721 74.3428L92.121 74.3342L92.1206 74.3249L91.721 74.3428ZM70.1859 77.7091C68.4042 77.7914 66.9139 76.3753 66.8352 74.5472L66.0359 74.5816C66.1325 76.8257 67.9728 78.6122 70.2228 78.5082L70.1859 77.7091ZM73.2667 74.3109C73.3449 76.1358 71.9379 77.6342 70.1873 77.709L70.2214 78.5083C72.4149 78.4146 74.1631 76.5417 74.066 74.2767L73.2667 74.3109ZM70.029 71.1451C71.7864 71.1451 73.2275 72.5311 73.2665 74.3026L74.0663 74.285C74.0176 72.0731 72.2157 70.3451 70.029 70.3451V71.1451ZM66.8355 74.5644C66.8355 72.7316 68.2511 71.2277 70.0475 71.1447L70.0106 70.3455C67.7752 70.4488 66.0355 72.3162 66.0355 74.5644H66.8355ZM88.0923 94.0322C86.2994 93.9927 84.8462 92.4901 84.8462 90.6616H84.0462C84.0462 92.914 85.8359 94.7827 88.0747 94.832L88.0923 94.0322ZM91.4085 90.6616C91.4085 92.5301 89.9177 94.0321 88.0835 94.0321V94.8321C90.3687 94.8321 92.2085 92.9627 92.2085 90.6616H91.4085ZM88.0835 87.2955C89.918 87.2955 91.4085 88.7978 91.4085 90.6616H92.2085C92.2085 88.3645 90.3684 86.4955 88.0835 86.4955V87.2955ZM88.0397 87.2955H88.0835V86.4955H88.0397V87.2955ZM84.8461 90.653C84.807 88.8332 86.2534 87.3349 88.0485 87.2954L88.0309 86.4956C85.7942 86.5448 83.9977 88.4089 84.0463 90.6702L84.8461 90.653ZM66.0359 90.6797C66.1325 92.9279 67.9725 94.7148 70.2228 94.6108L70.1859 93.8116C68.4044 93.894 66.9139 92.4781 66.8352 90.6453L66.0359 90.6797ZM70.0106 86.4481C67.7758 86.5514 66.0355 88.4137 66.0355 90.6625H66.8355C66.8355 88.8303 68.2506 87.3303 70.0475 87.2472L70.0106 86.4481ZM74.0663 90.392C74.0176 88.1759 72.2161 86.4477 70.029 86.4477V87.2477C71.7861 87.2477 73.2275 88.6334 73.2665 90.4096L74.0663 90.392ZM70.2214 94.6108C72.4146 94.5171 74.1631 92.6445 74.066 90.3836L73.2667 90.418C73.3449 92.2381 71.9382 93.7367 70.1873 93.8116L70.2214 94.6108ZM52.175 77.7091C50.3933 77.7915 48.903 76.3753 48.8243 74.5472L48.0251 74.5816C48.1217 76.8257 49.962 78.6122 52.212 78.5083L52.175 77.7091ZM55.2559 74.311C55.3341 76.1359 53.927 77.6342 52.1764 77.7091L52.2106 78.5083C54.404 78.4146 56.1522 76.5417 56.0552 74.2767L55.2559 74.311ZM52.0182 71.1451C53.7756 71.1451 55.2166 72.5312 55.2556 74.3026L56.0554 74.285C56.0068 72.0731 54.2049 70.3451 52.0182 70.3451V71.1451ZM48.8247 74.5644C48.8247 72.7316 50.2403 71.2277 52.0367 71.1447L51.9997 70.3456C49.7644 70.4489 48.0247 72.3162 48.0247 74.5644H48.8247ZM47.9803 90.6795C48.0768 92.9277 49.9168 94.7146 52.1671 94.6106L52.1302 93.8115C50.3488 93.8938 48.8582 92.478 48.7795 90.6452L47.9803 90.6795ZM51.9549 86.4479C49.7201 86.5512 47.9799 88.4136 47.9799 90.6623H48.7799C48.7799 88.8301 50.1949 87.3301 51.9918 87.2471L51.9549 86.4479ZM56.0106 90.3919C55.9619 88.1758 54.1604 86.4475 51.9734 86.4475V87.2475C53.7304 87.2475 55.1718 88.6332 55.2108 90.4094L56.0106 90.3919ZM52.1657 94.6107C54.3589 94.517 56.1074 92.6444 56.0103 90.3835L55.2111 90.4178C55.2892 92.2379 53.8825 93.7366 52.1316 93.8114L52.1657 94.6107ZM84.8901 74.5202C84.8901 72.6915 86.2997 71.2334 88.0924 71.194L88.0748 70.3942C85.8359 70.4434 84.0901 72.2679 84.0901 74.5202H84.8901ZM84.8901 74.5646V74.5202H84.0901V74.5646H84.8901ZM88.2063 77.7089C86.4067 77.7485 84.929 76.3664 84.89 74.556L84.0902 74.5732C84.1389 76.8348 85.9918 78.5578 88.2239 78.5087L88.2063 77.7089ZM91.321 74.3514C91.3603 76.1815 89.9474 77.6737 88.207 77.7089L88.2232 78.5087C90.4268 78.4641 92.1692 76.585 92.1209 74.3342L91.321 74.3514ZM88.0836 71.1941C89.8305 71.1941 91.2428 72.6068 91.3214 74.3607L92.1206 74.3249C92.0238 72.1662 90.2808 70.3941 88.0836 70.3941V71.1941Z" fill="url(#paint5_linear_17_553)" mask="url(#path-7-inside-3_17_553)"/>
</g>
<g opacity="0.5" filter="url(#filter4_b_17_553)">
<path d="M34.2281 55.5433C34.2281 57.4277 35.6875 58.9177 37.6437 58.9177L100.877 58.9177C102.833 58.9177 104.297 57.4277 104.297 55.5433C104.297 53.6151 102.833 52.1689 100.877 52.1689L37.6437 52.1689C35.6875 52.1689 34.2281 53.6151 34.2281 55.5433Z" fill="url(#paint6_linear_17_553)" fill-opacity="0.5"/>
</g>
<defs>
<filter id="filter0_f_17_553" x="1.78149" y="1.48639" width="95.7693" height="101.483" filterUnits="userSpaceOnUse" color-interpolation-filters="sRGB">
<feFlood flood-opacity="0" result="BackgroundImageFix"/>
<feBlend mode="normal" in="SourceGraphic" in2="BackgroundImageFix" result="shape"/>
<feGaussianBlur stdDeviation="9.5" result="effect1_foregroundBlur_17_553"/>
</filter>
<filter id="filter1_b_17_553" x="5.1543" y="4.62775" width="129.846" height="132.108" filterUnits="userSpaceOnUse" color-interpolation-filters="sRGB">
<feFlood flood-opacity="0" result="BackgroundImageFix"/>
<feGaussianBlur in="BackgroundImageFix" stdDeviation="12"/>
<feComposite in2="SourceAlpha" operator="in" result="effect1_backgroundBlur_17_553"/>
<feBlend mode="normal" in="SourceGraphic" in2="effect1_backgroundBlur_17_553" result="shape"/>
</filter>
<filter id="filter2_bd_17_553" x="35.3115" y="8.01855" width="69.5298" height="50.3607" filterUnits="userSpaceOnUse" color-interpolation-filters="sRGB">
<feFlood flood-opacity="0" result="BackgroundImageFix"/>
<feGaussianBlur in="BackgroundImageFix" stdDeviation="7.5"/>
<feComposite in2="SourceAlpha" operator="in" result="effect1_backgroundBlur_17_553"/>
<feColorMatrix in="SourceAlpha" type="matrix" values="0 0 0 0 0 0 0 0 0 0 0 0 0 0 0 0 0 0 127 0" result="hardAlpha"/>
<feOffset dx="5" dy="5"/>
<feGaussianBlur stdDeviation="5"/>
<feColorMatrix type="matrix" values="0 0 0 0 1 0 0 0 0 0.537255 0 0 0 0 0.160784 0 0 0 0.2 0"/>
<feBlend mode="normal" in2="effect1_backgroundBlur_17_553" result="effect2_dropShadow_17_553"/>
<feBlend mode="normal" in="SourceGraphic" in2="effect2_dropShadow_17_553" result="shape"/>
</filter>
<filter id="filter3_bd_17_553" x="33.3799" y="55.7451" width="73.4285" height="53.687" filterUnits="userSpaceOnUse" color-interpolation-filters="sRGB">
<feFlood flood-opacity="0" result="BackgroundImageFix"/>
<feGaussianBlur in="BackgroundImageFix" stdDeviation="7.5"/>
<feComposite in2="SourceAlpha" operator="in" result="effect1_backgroundBlur_17_553"/>
<feColorMatrix in="SourceAlpha" type="matrix" values="0 0 0 0 0 0 0 0 0 0 0 0 0 0 0 0 0 0 127 0" result="hardAlpha"/>
<feOffset dx="5" dy="5"/>
<feGaussianBlur stdDeviation="5"/>
<feColorMatrix type="matrix" values="0 0 0 0 0 0 0 0 0 0.514518 0 0 0 0 0.459904 0 0 0 0.5 0"/>
<feBlend mode="normal" in2="effect1_backgroundBlur_17_553" result="effect2_dropShadow_17_553"/>
<feBlend mode="normal" in="SourceGraphic" in2="effect2_dropShadow_17_553" result="shape"/>
</filter>
<filter id="filter4_b_17_553" x="19.228" y="37.1689" width="100.069" height="36.7487" filterUnits="userSpaceOnUse" color-interpolation-filters="sRGB">
<feFlood flood-opacity="0" result="BackgroundImageFix"/>
<feGaussianBlur in="BackgroundImageFix" stdDeviation="7.5"/>
<feComposite in2="SourceAlpha" operator="in" result="effect1_backgroundBlur_17_553"/>
<feBlend mode="normal" in="SourceGraphic" in2="effect1_backgroundBlur_17_553" result="shape"/>
</filter>
<linearGradient id="paint0_linear_17_553" x1="68.5767" y1="15.4434" x2="36.8152" y2="91.16" gradientUnits="userSpaceOnUse">
<stop stop-color="#00AFF0"/>
<stop offset="1" stop-color="#00AFF0"/>
</linearGradient>
<linearGradient id="paint1_linear_17_553" x1="42.8644" y1="39.1935" x2="95.5305" y2="102.624" gradientUnits="userSpaceOnUse">
<stop stop-color="white" stop-opacity="0.25"/>
<stop offset="1" stop-color="white" stop-opacity="0"/>
</linearGradient>
<linearGradient id="paint2_linear_17_553" x1="87.458" y1="40.2196" x2="88.6451" y2="24.9267" gradientUnits="userSpaceOnUse">
<stop stop-color="white"/>
<stop offset="1" stop-color="white" stop-opacity="0.2"/>
</linearGradient>
<linearGradient id="paint3_linear_17_553" x1="86.3717" y1="26.0972" x2="102.445" y2="32.1257" gradientUnits="userSpaceOnUse">
<stop stop-color="white" stop-opacity="0.25"/>
<stop offset="1" stop-color="white" stop-opacity="0"/>
</linearGradient>
<linearGradient id="paint4_linear_17_553" x1="88.7294" y1="75.0225" x2="15.5059" y2="70.1979" gradientUnits="userSpaceOnUse">
<stop stop-color="white"/>
<stop offset="1" stop-color="white" stop-opacity="0.2"/>
</linearGradient>
<linearGradient id="paint5_linear_17_553" x1="55.293" y1="73.5047" x2="66.6954" y2="99.3968" gradientUnits="userSpaceOnUse">
<stop stop-color="white" stop-opacity="0.25"/>
<stop offset="1" stop-color="white" stop-opacity="0"/>
</linearGradient>
<linearGradient id="paint6_linear_17_553" x1="53.1399" y1="55.4481" x2="50.6276" y2="47.5793" gradientUnits="userSpaceOnUse">
<stop stop-color="white"/>
<stop offset="1" stop-color="white" stop-opacity="0.2"/>
</linearGradient>
</defs>
</svg>
