<svg width="78" height="42" viewBox="0 0 78 42" fill="none" xmlns="http://www.w3.org/2000/svg">
<path d="M0.712766 6.46344C2.01018 3.25351 4.73164 2.18521 7.37778 1.5376C11.0723 0.687049 14.9127 0.233728 18.6777 0.201084C36.0443 0.513617 50.987 7.50303 63.5674 20.0164C66.7552 23.209 69.5647 26.9003 72.8481 30.7705C74.8203 26.6177 73.9803 21.617 75.7816 17.2072C77.3311 18.6477 77.251 20.307 77.2211 21.6858C77.0764 27.3413 76.8497 33.0514 76.484 38.7303C76.2852 41.4569 75.3323 42.3375 72.83 41.7776C67.6043 40.6813 63.1537 38.0812 59.6174 34.0085C59.5034 33.8372 59.5787 33.4165 59.6221 32.77C63.7772 31.3661 66.0894 36.6234 70.2648 36.3179C67.6474 29.534 62.9033 24.5348 57.7808 20.0342C52.4053 15.3313 46.7084 11.2127 40.1793 8.51218C33.7893 5.84278 27.2052 4.66132 20.3818 4.00966C13.5834 3.21778 7.122 4.17848 0.712766 6.46344Z" fill="#1FB9F2"/>
</svg>
